<?xml version="1.0" encoding="utf-8" standalone="no"?>
<!DOCTYPE svg PUBLIC "-//W3C//DTD SVG 1.1//EN"
  "http://www.w3.org/Graphics/SVG/1.1/DTD/svg11.dtd">
<svg xmlns:xlink="http://www.w3.org/1999/xlink" width="460.8pt" height="345.6pt" viewBox="0 0 460.8 345.6" xmlns="http://www.w3.org/2000/svg" version="1.1">
 <metadata>
  <rdf:RDF xmlns:dc="http://purl.org/dc/elements/1.1/" xmlns:cc="http://creativecommons.org/ns#" xmlns:rdf="http://www.w3.org/1999/02/22-rdf-syntax-ns#">
   <cc:Work>
    <dc:type rdf:resource="http://purl.org/dc/dcmitype/StillImage"/>
    <dc:date>2024-01-05T13:36:02.094128</dc:date>
    <dc:format>image/svg+xml</dc:format>
    <dc:creator>
     <cc:Agent>
      <dc:title>Matplotlib v3.8.2, https://matplotlib.org/</dc:title>
     </cc:Agent>
    </dc:creator>
   </cc:Work>
  </rdf:RDF>
 </metadata>
 <defs>
  <style type="text/css">*{stroke-linejoin: round; stroke-linecap: butt}</style>
 </defs>
 <g id="figure_1">
  <g id="patch_1">
   <path d="M 0 345.6 
L 460.8 345.6 
L 460.8 0 
L 0 0 
z
" style="fill: #ffffff"/>
  </g>
  <g id="axes_1">
   <g id="patch_2">
    <path d="M 57.6 307.584 
L 414.72 307.584 
L 414.72 41.472 
L 57.6 41.472 
z
" style="fill: #ffffff"/>
   </g>
   <g id="matplotlib.axis_1">
    <g id="xtick_1">
     <g id="line2d_1">
      <defs>
       <path id="m701407bb9e" d="M 0 0 
L 0 3.5 
" style="stroke: #000000; stroke-width: 0.8"/>
      </defs>
      <g>
       <use xlink:href="#m701407bb9e" x="73.832727" y="307.584" style="stroke: #000000; stroke-width: 0.8"/>
      </g>
     </g>
     <g id="text_1">
      <!-- 0 -->
      <g transform="translate(70.651477 322.182437) scale(0.1 -0.1)">
       <defs>
        <path id="DejaVuSans-30" d="M 2034 4250 
Q 1547 4250 1301 3770 
Q 1056 3291 1056 2328 
Q 1056 1369 1301 889 
Q 1547 409 2034 409 
Q 2525 409 2770 889 
Q 3016 1369 3016 2328 
Q 3016 3291 2770 3770 
Q 2525 4250 2034 4250 
z
M 2034 4750 
Q 2819 4750 3233 4129 
Q 3647 3509 3647 2328 
Q 3647 1150 3233 529 
Q 2819 -91 2034 -91 
Q 1250 -91 836 529 
Q 422 1150 422 2328 
Q 422 3509 836 4129 
Q 1250 4750 2034 4750 
z
" transform="scale(0.015625)"/>
       </defs>
       <use xlink:href="#DejaVuSans-30"/>
      </g>
     </g>
    </g>
    <g id="xtick_2">
     <g id="line2d_2">
      <g>
       <use xlink:href="#m701407bb9e" x="116.550431" y="307.584" style="stroke: #000000; stroke-width: 0.8"/>
      </g>
     </g>
     <g id="text_2">
      <!-- 5 -->
      <g transform="translate(113.369181 322.182437) scale(0.1 -0.1)">
       <defs>
        <path id="DejaVuSans-35" d="M 691 4666 
L 3169 4666 
L 3169 4134 
L 1269 4134 
L 1269 2991 
Q 1406 3038 1543 3061 
Q 1681 3084 1819 3084 
Q 2600 3084 3056 2656 
Q 3513 2228 3513 1497 
Q 3513 744 3044 326 
Q 2575 -91 1722 -91 
Q 1428 -91 1123 -41 
Q 819 9 494 109 
L 494 744 
Q 775 591 1075 516 
Q 1375 441 1709 441 
Q 2250 441 2565 725 
Q 2881 1009 2881 1497 
Q 2881 1984 2565 2268 
Q 2250 2553 1709 2553 
Q 1456 2553 1204 2497 
Q 953 2441 691 2322 
L 691 4666 
z
" transform="scale(0.015625)"/>
       </defs>
       <use xlink:href="#DejaVuSans-35"/>
      </g>
     </g>
    </g>
    <g id="xtick_3">
     <g id="line2d_3">
      <g>
       <use xlink:href="#m701407bb9e" x="159.268134" y="307.584" style="stroke: #000000; stroke-width: 0.8"/>
      </g>
     </g>
     <g id="text_3">
      <!-- 10 -->
      <g transform="translate(152.905634 322.182437) scale(0.1 -0.1)">
       <defs>
        <path id="DejaVuSans-31" d="M 794 531 
L 1825 531 
L 1825 4091 
L 703 3866 
L 703 4441 
L 1819 4666 
L 2450 4666 
L 2450 531 
L 3481 531 
L 3481 0 
L 794 0 
L 794 531 
z
" transform="scale(0.015625)"/>
       </defs>
       <use xlink:href="#DejaVuSans-31"/>
       <use xlink:href="#DejaVuSans-30" x="63.623047"/>
      </g>
     </g>
    </g>
    <g id="xtick_4">
     <g id="line2d_4">
      <g>
       <use xlink:href="#m701407bb9e" x="201.985837" y="307.584" style="stroke: #000000; stroke-width: 0.8"/>
      </g>
     </g>
     <g id="text_4">
      <!-- 15 -->
      <g transform="translate(195.623337 322.182437) scale(0.1 -0.1)">
       <use xlink:href="#DejaVuSans-31"/>
       <use xlink:href="#DejaVuSans-35" x="63.623047"/>
      </g>
     </g>
    </g>
    <g id="xtick_5">
     <g id="line2d_5">
      <g>
       <use xlink:href="#m701407bb9e" x="244.703541" y="307.584" style="stroke: #000000; stroke-width: 0.8"/>
      </g>
     </g>
     <g id="text_5">
      <!-- 20 -->
      <g transform="translate(238.341041 322.182437) scale(0.1 -0.1)">
       <defs>
        <path id="DejaVuSans-32" d="M 1228 531 
L 3431 531 
L 3431 0 
L 469 0 
L 469 531 
Q 828 903 1448 1529 
Q 2069 2156 2228 2338 
Q 2531 2678 2651 2914 
Q 2772 3150 2772 3378 
Q 2772 3750 2511 3984 
Q 2250 4219 1831 4219 
Q 1534 4219 1204 4116 
Q 875 4013 500 3803 
L 500 4441 
Q 881 4594 1212 4672 
Q 1544 4750 1819 4750 
Q 2544 4750 2975 4387 
Q 3406 4025 3406 3419 
Q 3406 3131 3298 2873 
Q 3191 2616 2906 2266 
Q 2828 2175 2409 1742 
Q 1991 1309 1228 531 
z
" transform="scale(0.015625)"/>
       </defs>
       <use xlink:href="#DejaVuSans-32"/>
       <use xlink:href="#DejaVuSans-30" x="63.623047"/>
      </g>
     </g>
    </g>
    <g id="xtick_6">
     <g id="line2d_6">
      <g>
       <use xlink:href="#m701407bb9e" x="287.421244" y="307.584" style="stroke: #000000; stroke-width: 0.8"/>
      </g>
     </g>
     <g id="text_6">
      <!-- 25 -->
      <g transform="translate(281.058744 322.182437) scale(0.1 -0.1)">
       <use xlink:href="#DejaVuSans-32"/>
       <use xlink:href="#DejaVuSans-35" x="63.623047"/>
      </g>
     </g>
    </g>
    <g id="xtick_7">
     <g id="line2d_7">
      <g>
       <use xlink:href="#m701407bb9e" x="330.138947" y="307.584" style="stroke: #000000; stroke-width: 0.8"/>
      </g>
     </g>
     <g id="text_7">
      <!-- 30 -->
      <g transform="translate(323.776447 322.182437) scale(0.1 -0.1)">
       <defs>
        <path id="DejaVuSans-33" d="M 2597 2516 
Q 3050 2419 3304 2112 
Q 3559 1806 3559 1356 
Q 3559 666 3084 287 
Q 2609 -91 1734 -91 
Q 1441 -91 1130 -33 
Q 819 25 488 141 
L 488 750 
Q 750 597 1062 519 
Q 1375 441 1716 441 
Q 2309 441 2620 675 
Q 2931 909 2931 1356 
Q 2931 1769 2642 2001 
Q 2353 2234 1838 2234 
L 1294 2234 
L 1294 2753 
L 1863 2753 
Q 2328 2753 2575 2939 
Q 2822 3125 2822 3475 
Q 2822 3834 2567 4026 
Q 2313 4219 1838 4219 
Q 1578 4219 1281 4162 
Q 984 4106 628 3988 
L 628 4550 
Q 988 4650 1302 4700 
Q 1616 4750 1894 4750 
Q 2613 4750 3031 4423 
Q 3450 4097 3450 3541 
Q 3450 3153 3228 2886 
Q 3006 2619 2597 2516 
z
" transform="scale(0.015625)"/>
       </defs>
       <use xlink:href="#DejaVuSans-33"/>
       <use xlink:href="#DejaVuSans-30" x="63.623047"/>
      </g>
     </g>
    </g>
    <g id="xtick_8">
     <g id="line2d_8">
      <g>
       <use xlink:href="#m701407bb9e" x="372.856651" y="307.584" style="stroke: #000000; stroke-width: 0.8"/>
      </g>
     </g>
     <g id="text_8">
      <!-- 35 -->
      <g transform="translate(366.494151 322.182437) scale(0.1 -0.1)">
       <use xlink:href="#DejaVuSans-33"/>
       <use xlink:href="#DejaVuSans-35" x="63.623047"/>
      </g>
     </g>
    </g>
    <g id="text_9">
     <!-- Time -->
     <g transform="translate(223.926406 335.860562) scale(0.1 -0.1)">
      <defs>
       <path id="DejaVuSans-54" d="M -19 4666 
L 3928 4666 
L 3928 4134 
L 2272 4134 
L 2272 0 
L 1638 0 
L 1638 4134 
L -19 4134 
L -19 4666 
z
" transform="scale(0.015625)"/>
       <path id="DejaVuSans-69" d="M 603 3500 
L 1178 3500 
L 1178 0 
L 603 0 
L 603 3500 
z
M 603 4863 
L 1178 4863 
L 1178 4134 
L 603 4134 
L 603 4863 
z
" transform="scale(0.015625)"/>
       <path id="DejaVuSans-6d" d="M 3328 2828 
Q 3544 3216 3844 3400 
Q 4144 3584 4550 3584 
Q 5097 3584 5394 3201 
Q 5691 2819 5691 2113 
L 5691 0 
L 5113 0 
L 5113 2094 
Q 5113 2597 4934 2840 
Q 4756 3084 4391 3084 
Q 3944 3084 3684 2787 
Q 3425 2491 3425 1978 
L 3425 0 
L 2847 0 
L 2847 2094 
Q 2847 2600 2669 2842 
Q 2491 3084 2119 3084 
Q 1678 3084 1418 2786 
Q 1159 2488 1159 1978 
L 1159 0 
L 581 0 
L 581 3500 
L 1159 3500 
L 1159 2956 
Q 1356 3278 1631 3431 
Q 1906 3584 2284 3584 
Q 2666 3584 2933 3390 
Q 3200 3197 3328 2828 
z
" transform="scale(0.015625)"/>
       <path id="DejaVuSans-65" d="M 3597 1894 
L 3597 1613 
L 953 1613 
Q 991 1019 1311 708 
Q 1631 397 2203 397 
Q 2534 397 2845 478 
Q 3156 559 3463 722 
L 3463 178 
Q 3153 47 2828 -22 
Q 2503 -91 2169 -91 
Q 1331 -91 842 396 
Q 353 884 353 1716 
Q 353 2575 817 3079 
Q 1281 3584 2069 3584 
Q 2775 3584 3186 3129 
Q 3597 2675 3597 1894 
z
M 3022 2063 
Q 3016 2534 2758 2815 
Q 2500 3097 2075 3097 
Q 1594 3097 1305 2825 
Q 1016 2553 972 2059 
L 3022 2063 
z
" transform="scale(0.015625)"/>
      </defs>
      <use xlink:href="#DejaVuSans-54"/>
      <use xlink:href="#DejaVuSans-69" x="57.958984"/>
      <use xlink:href="#DejaVuSans-6d" x="85.742188"/>
      <use xlink:href="#DejaVuSans-65" x="183.154297"/>
     </g>
    </g>
   </g>
   <g id="matplotlib.axis_2">
    <g id="ytick_1">
     <g id="line2d_9">
      <defs>
       <path id="m50614587e8" d="M 0 0 
L -3.5 0 
" style="stroke: #000000; stroke-width: 0.8"/>
      </defs>
      <g>
       <use xlink:href="#m50614587e8" x="57.6" y="298.860875" style="stroke: #000000; stroke-width: 0.8"/>
      </g>
     </g>
     <g id="text_10">
      <!-- −6 -->
      <g transform="translate(35.857813 302.660094) scale(0.1 -0.1)">
       <defs>
        <path id="DejaVuSans-2212" d="M 678 2272 
L 4684 2272 
L 4684 1741 
L 678 1741 
L 678 2272 
z
" transform="scale(0.015625)"/>
        <path id="DejaVuSans-36" d="M 2113 2584 
Q 1688 2584 1439 2293 
Q 1191 2003 1191 1497 
Q 1191 994 1439 701 
Q 1688 409 2113 409 
Q 2538 409 2786 701 
Q 3034 994 3034 1497 
Q 3034 2003 2786 2293 
Q 2538 2584 2113 2584 
z
M 3366 4563 
L 3366 3988 
Q 3128 4100 2886 4159 
Q 2644 4219 2406 4219 
Q 1781 4219 1451 3797 
Q 1122 3375 1075 2522 
Q 1259 2794 1537 2939 
Q 1816 3084 2150 3084 
Q 2853 3084 3261 2657 
Q 3669 2231 3669 1497 
Q 3669 778 3244 343 
Q 2819 -91 2113 -91 
Q 1303 -91 875 529 
Q 447 1150 447 2328 
Q 447 3434 972 4092 
Q 1497 4750 2381 4750 
Q 2619 4750 2861 4703 
Q 3103 4656 3366 4563 
z
" transform="scale(0.015625)"/>
       </defs>
       <use xlink:href="#DejaVuSans-2212"/>
       <use xlink:href="#DejaVuSans-36" x="83.789062"/>
      </g>
     </g>
    </g>
    <g id="ytick_2">
     <g id="line2d_10">
      <g>
       <use xlink:href="#m50614587e8" x="57.6" y="256.683523" style="stroke: #000000; stroke-width: 0.8"/>
      </g>
     </g>
     <g id="text_11">
      <!-- −4 -->
      <g transform="translate(35.857813 260.482742) scale(0.1 -0.1)">
       <defs>
        <path id="DejaVuSans-34" d="M 2419 4116 
L 825 1625 
L 2419 1625 
L 2419 4116 
z
M 2253 4666 
L 3047 4666 
L 3047 1625 
L 3713 1625 
L 3713 1100 
L 3047 1100 
L 3047 0 
L 2419 0 
L 2419 1100 
L 313 1100 
L 313 1709 
L 2253 4666 
z
" transform="scale(0.015625)"/>
       </defs>
       <use xlink:href="#DejaVuSans-2212"/>
       <use xlink:href="#DejaVuSans-34" x="83.789062"/>
      </g>
     </g>
    </g>
    <g id="ytick_3">
     <g id="line2d_11">
      <g>
       <use xlink:href="#m50614587e8" x="57.6" y="214.506171" style="stroke: #000000; stroke-width: 0.8"/>
      </g>
     </g>
     <g id="text_12">
      <!-- −2 -->
      <g transform="translate(35.857813 218.30539) scale(0.1 -0.1)">
       <use xlink:href="#DejaVuSans-2212"/>
       <use xlink:href="#DejaVuSans-32" x="83.789062"/>
      </g>
     </g>
    </g>
    <g id="ytick_4">
     <g id="line2d_12">
      <g>
       <use xlink:href="#m50614587e8" x="57.6" y="172.328819" style="stroke: #000000; stroke-width: 0.8"/>
      </g>
     </g>
     <g id="text_13">
      <!-- 0 -->
      <g transform="translate(44.2375 176.128037) scale(0.1 -0.1)">
       <use xlink:href="#DejaVuSans-30"/>
      </g>
     </g>
    </g>
    <g id="ytick_5">
     <g id="line2d_13">
      <g>
       <use xlink:href="#m50614587e8" x="57.6" y="130.151466" style="stroke: #000000; stroke-width: 0.8"/>
      </g>
     </g>
     <g id="text_14">
      <!-- 2 -->
      <g transform="translate(44.2375 133.950685) scale(0.1 -0.1)">
       <use xlink:href="#DejaVuSans-32"/>
      </g>
     </g>
    </g>
    <g id="ytick_6">
     <g id="line2d_14">
      <g>
       <use xlink:href="#m50614587e8" x="57.6" y="87.974114" style="stroke: #000000; stroke-width: 0.8"/>
      </g>
     </g>
     <g id="text_15">
      <!-- 4 -->
      <g transform="translate(44.2375 91.773333) scale(0.1 -0.1)">
       <use xlink:href="#DejaVuSans-34"/>
      </g>
     </g>
    </g>
    <g id="ytick_7">
     <g id="line2d_15">
      <g>
       <use xlink:href="#m50614587e8" x="57.6" y="45.796762" style="stroke: #000000; stroke-width: 0.8"/>
      </g>
     </g>
     <g id="text_16">
      <!-- 6 -->
      <g transform="translate(44.2375 49.595981) scale(0.1 -0.1)">
       <use xlink:href="#DejaVuSans-36"/>
      </g>
     </g>
    </g>
    <g id="text_17">
     <!-- Voltage -->
     <g transform="translate(29.778125 193.28425) rotate(-90) scale(0.1 -0.1)">
      <defs>
       <path id="DejaVuSans-56" d="M 1831 0 
L 50 4666 
L 709 4666 
L 2188 738 
L 3669 4666 
L 4325 4666 
L 2547 0 
L 1831 0 
z
" transform="scale(0.015625)"/>
       <path id="DejaVuSans-6f" d="M 1959 3097 
Q 1497 3097 1228 2736 
Q 959 2375 959 1747 
Q 959 1119 1226 758 
Q 1494 397 1959 397 
Q 2419 397 2687 759 
Q 2956 1122 2956 1747 
Q 2956 2369 2687 2733 
Q 2419 3097 1959 3097 
z
M 1959 3584 
Q 2709 3584 3137 3096 
Q 3566 2609 3566 1747 
Q 3566 888 3137 398 
Q 2709 -91 1959 -91 
Q 1206 -91 779 398 
Q 353 888 353 1747 
Q 353 2609 779 3096 
Q 1206 3584 1959 3584 
z
" transform="scale(0.015625)"/>
       <path id="DejaVuSans-6c" d="M 603 4863 
L 1178 4863 
L 1178 0 
L 603 0 
L 603 4863 
z
" transform="scale(0.015625)"/>
       <path id="DejaVuSans-74" d="M 1172 4494 
L 1172 3500 
L 2356 3500 
L 2356 3053 
L 1172 3053 
L 1172 1153 
Q 1172 725 1289 603 
Q 1406 481 1766 481 
L 2356 481 
L 2356 0 
L 1766 0 
Q 1100 0 847 248 
Q 594 497 594 1153 
L 594 3053 
L 172 3053 
L 172 3500 
L 594 3500 
L 594 4494 
L 1172 4494 
z
" transform="scale(0.015625)"/>
       <path id="DejaVuSans-61" d="M 2194 1759 
Q 1497 1759 1228 1600 
Q 959 1441 959 1056 
Q 959 750 1161 570 
Q 1363 391 1709 391 
Q 2188 391 2477 730 
Q 2766 1069 2766 1631 
L 2766 1759 
L 2194 1759 
z
M 3341 1997 
L 3341 0 
L 2766 0 
L 2766 531 
Q 2569 213 2275 61 
Q 1981 -91 1556 -91 
Q 1019 -91 701 211 
Q 384 513 384 1019 
Q 384 1609 779 1909 
Q 1175 2209 1959 2209 
L 2766 2209 
L 2766 2266 
Q 2766 2663 2505 2880 
Q 2244 3097 1772 3097 
Q 1472 3097 1187 3025 
Q 903 2953 641 2809 
L 641 3341 
Q 956 3463 1253 3523 
Q 1550 3584 1831 3584 
Q 2591 3584 2966 3190 
Q 3341 2797 3341 1997 
z
" transform="scale(0.015625)"/>
       <path id="DejaVuSans-67" d="M 2906 1791 
Q 2906 2416 2648 2759 
Q 2391 3103 1925 3103 
Q 1463 3103 1205 2759 
Q 947 2416 947 1791 
Q 947 1169 1205 825 
Q 1463 481 1925 481 
Q 2391 481 2648 825 
Q 2906 1169 2906 1791 
z
M 3481 434 
Q 3481 -459 3084 -895 
Q 2688 -1331 1869 -1331 
Q 1566 -1331 1297 -1286 
Q 1028 -1241 775 -1147 
L 775 -588 
Q 1028 -725 1275 -790 
Q 1522 -856 1778 -856 
Q 2344 -856 2625 -561 
Q 2906 -266 2906 331 
L 2906 616 
Q 2728 306 2450 153 
Q 2172 0 1784 0 
Q 1141 0 747 490 
Q 353 981 353 1791 
Q 353 2603 747 3093 
Q 1141 3584 1784 3584 
Q 2172 3584 2450 3431 
Q 2728 3278 2906 2969 
L 2906 3500 
L 3481 3500 
L 3481 434 
z
" transform="scale(0.015625)"/>
      </defs>
      <use xlink:href="#DejaVuSans-56"/>
      <use xlink:href="#DejaVuSans-6f" x="60.658203"/>
      <use xlink:href="#DejaVuSans-6c" x="121.839844"/>
      <use xlink:href="#DejaVuSans-74" x="149.623047"/>
      <use xlink:href="#DejaVuSans-61" x="188.832031"/>
      <use xlink:href="#DejaVuSans-67" x="250.111328"/>
      <use xlink:href="#DejaVuSans-65" x="313.587891"/>
     </g>
    </g>
   </g>
   <g id="line2d_16">
    <path d="M 73.832727 183.851401 
L 73.832727 133.813913 
L 82.376268 213.702703 
L 90.919809 231.397433 
L 99.463349 295.488 
L 108.00689 260.875805 
L 116.550431 250.712601 
L 125.093971 221.149594 
L 133.637512 218.283099 
L 142.181053 267.336864 
L 150.724593 255.31417 
L 159.268134 253.162584 
L 167.811675 263.399114 
L 176.355215 231.550501 
L 184.898756 259.50959 
L 193.442297 220.221466 
L 201.985837 254.58114 
L 210.529378 238.241314 
L 219.072919 255.103827 
L 227.616459 238.062944 
L 227.616459 53.568 
L 236.16 59.347648 
L 244.703541 68.604655 
L 244.703541 212.909192 
L 253.247081 81.517273 
L 261.790622 71.161625 
L 261.790622 287.927073 
L 270.334163 234.510452 
L 278.877703 240.110192 
L 287.421244 278.131547 
L 295.964785 187.302529 
L 295.964785 140.345328 
L 304.508325 91.500634 
L 313.051866 106.014616 
L 321.595407 58.971607 
L 321.595407 186.218948 
L 330.138947 122.307929 
L 330.138947 178.43167 
L 338.682488 127.330289 
L 338.682488 275.921069 
L 347.226029 290.356079 
L 355.769569 216.733168 
L 364.31311 248.420863 
L 372.856651 224.619771 
L 381.400191 283.414194 
L 389.943732 287.872881 
L 398.487273 219.489207 
" clip-path="url(#p59e4bf0eb3)" style="fill: none; stroke: #1f77b4; stroke-width: 1.5; stroke-linecap: square"/>
    <defs>
     <path id="m6c236f41f6" d="M -3 3 
L 3 -3 
M -3 -3 
L 3 3 
" style="stroke: #1f77b4"/>
    </defs>
    <g clip-path="url(#p59e4bf0eb3)">
     <use xlink:href="#m6c236f41f6" x="73.832727" y="183.851401" style="fill: #1f77b4; stroke: #1f77b4"/>
     <use xlink:href="#m6c236f41f6" x="73.832727" y="133.813913" style="fill: #1f77b4; stroke: #1f77b4"/>
     <use xlink:href="#m6c236f41f6" x="82.376268" y="213.702703" style="fill: #1f77b4; stroke: #1f77b4"/>
     <use xlink:href="#m6c236f41f6" x="90.919809" y="231.397433" style="fill: #1f77b4; stroke: #1f77b4"/>
     <use xlink:href="#m6c236f41f6" x="99.463349" y="295.488" style="fill: #1f77b4; stroke: #1f77b4"/>
     <use xlink:href="#m6c236f41f6" x="108.00689" y="260.875805" style="fill: #1f77b4; stroke: #1f77b4"/>
     <use xlink:href="#m6c236f41f6" x="116.550431" y="250.712601" style="fill: #1f77b4; stroke: #1f77b4"/>
     <use xlink:href="#m6c236f41f6" x="125.093971" y="221.149594" style="fill: #1f77b4; stroke: #1f77b4"/>
     <use xlink:href="#m6c236f41f6" x="133.637512" y="218.283099" style="fill: #1f77b4; stroke: #1f77b4"/>
     <use xlink:href="#m6c236f41f6" x="142.181053" y="267.336864" style="fill: #1f77b4; stroke: #1f77b4"/>
     <use xlink:href="#m6c236f41f6" x="150.724593" y="255.31417" style="fill: #1f77b4; stroke: #1f77b4"/>
     <use xlink:href="#m6c236f41f6" x="159.268134" y="253.162584" style="fill: #1f77b4; stroke: #1f77b4"/>
     <use xlink:href="#m6c236f41f6" x="167.811675" y="263.399114" style="fill: #1f77b4; stroke: #1f77b4"/>
     <use xlink:href="#m6c236f41f6" x="176.355215" y="231.550501" style="fill: #1f77b4; stroke: #1f77b4"/>
     <use xlink:href="#m6c236f41f6" x="184.898756" y="259.50959" style="fill: #1f77b4; stroke: #1f77b4"/>
     <use xlink:href="#m6c236f41f6" x="193.442297" y="220.221466" style="fill: #1f77b4; stroke: #1f77b4"/>
     <use xlink:href="#m6c236f41f6" x="201.985837" y="254.58114" style="fill: #1f77b4; stroke: #1f77b4"/>
     <use xlink:href="#m6c236f41f6" x="210.529378" y="238.241314" style="fill: #1f77b4; stroke: #1f77b4"/>
     <use xlink:href="#m6c236f41f6" x="219.072919" y="255.103827" style="fill: #1f77b4; stroke: #1f77b4"/>
     <use xlink:href="#m6c236f41f6" x="227.616459" y="238.062944" style="fill: #1f77b4; stroke: #1f77b4"/>
     <use xlink:href="#m6c236f41f6" x="227.616459" y="53.568" style="fill: #1f77b4; stroke: #1f77b4"/>
     <use xlink:href="#m6c236f41f6" x="236.16" y="59.347648" style="fill: #1f77b4; stroke: #1f77b4"/>
     <use xlink:href="#m6c236f41f6" x="244.703541" y="68.604655" style="fill: #1f77b4; stroke: #1f77b4"/>
     <use xlink:href="#m6c236f41f6" x="244.703541" y="212.909192" style="fill: #1f77b4; stroke: #1f77b4"/>
     <use xlink:href="#m6c236f41f6" x="253.247081" y="81.517273" style="fill: #1f77b4; stroke: #1f77b4"/>
     <use xlink:href="#m6c236f41f6" x="261.790622" y="71.161625" style="fill: #1f77b4; stroke: #1f77b4"/>
     <use xlink:href="#m6c236f41f6" x="261.790622" y="287.927073" style="fill: #1f77b4; stroke: #1f77b4"/>
     <use xlink:href="#m6c236f41f6" x="270.334163" y="234.510452" style="fill: #1f77b4; stroke: #1f77b4"/>
     <use xlink:href="#m6c236f41f6" x="278.877703" y="240.110192" style="fill: #1f77b4; stroke: #1f77b4"/>
     <use xlink:href="#m6c236f41f6" x="287.421244" y="278.131547" style="fill: #1f77b4; stroke: #1f77b4"/>
     <use xlink:href="#m6c236f41f6" x="295.964785" y="187.302529" style="fill: #1f77b4; stroke: #1f77b4"/>
     <use xlink:href="#m6c236f41f6" x="295.964785" y="140.345328" style="fill: #1f77b4; stroke: #1f77b4"/>
     <use xlink:href="#m6c236f41f6" x="304.508325" y="91.500634" style="fill: #1f77b4; stroke: #1f77b4"/>
     <use xlink:href="#m6c236f41f6" x="313.051866" y="106.014616" style="fill: #1f77b4; stroke: #1f77b4"/>
     <use xlink:href="#m6c236f41f6" x="321.595407" y="58.971607" style="fill: #1f77b4; stroke: #1f77b4"/>
     <use xlink:href="#m6c236f41f6" x="321.595407" y="186.218948" style="fill: #1f77b4; stroke: #1f77b4"/>
     <use xlink:href="#m6c236f41f6" x="330.138947" y="122.307929" style="fill: #1f77b4; stroke: #1f77b4"/>
     <use xlink:href="#m6c236f41f6" x="330.138947" y="178.43167" style="fill: #1f77b4; stroke: #1f77b4"/>
     <use xlink:href="#m6c236f41f6" x="338.682488" y="127.330289" style="fill: #1f77b4; stroke: #1f77b4"/>
     <use xlink:href="#m6c236f41f6" x="338.682488" y="275.921069" style="fill: #1f77b4; stroke: #1f77b4"/>
     <use xlink:href="#m6c236f41f6" x="347.226029" y="290.356079" style="fill: #1f77b4; stroke: #1f77b4"/>
     <use xlink:href="#m6c236f41f6" x="355.769569" y="216.733168" style="fill: #1f77b4; stroke: #1f77b4"/>
     <use xlink:href="#m6c236f41f6" x="364.31311" y="248.420863" style="fill: #1f77b4; stroke: #1f77b4"/>
     <use xlink:href="#m6c236f41f6" x="372.856651" y="224.619771" style="fill: #1f77b4; stroke: #1f77b4"/>
     <use xlink:href="#m6c236f41f6" x="381.400191" y="283.414194" style="fill: #1f77b4; stroke: #1f77b4"/>
     <use xlink:href="#m6c236f41f6" x="389.943732" y="287.872881" style="fill: #1f77b4; stroke: #1f77b4"/>
     <use xlink:href="#m6c236f41f6" x="398.487273" y="219.489207" style="fill: #1f77b4; stroke: #1f77b4"/>
    </g>
   </g>
   <g id="patch_3">
    <path d="M 57.6 307.584 
L 57.6 41.472 
" style="fill: none; stroke: #000000; stroke-width: 0.8; stroke-linejoin: miter; stroke-linecap: square"/>
   </g>
   <g id="patch_4">
    <path d="M 414.72 307.584 
L 414.72 41.472 
" style="fill: none; stroke: #000000; stroke-width: 0.8; stroke-linejoin: miter; stroke-linecap: square"/>
   </g>
   <g id="patch_5">
    <path d="M 57.6 307.584 
L 414.72 307.584 
" style="fill: none; stroke: #000000; stroke-width: 0.8; stroke-linejoin: miter; stroke-linecap: square"/>
   </g>
   <g id="patch_6">
    <path d="M 57.6 41.472 
L 414.72 41.472 
" style="fill: none; stroke: #000000; stroke-width: 0.8; stroke-linejoin: miter; stroke-linecap: square"/>
   </g>
   <g id="text_18">
    <!-- Binary String : 1001010 -->
    <g transform="translate(57.6 35.472) scale(0.12 -0.12)">
     <defs>
      <path id="DejaVuSansMono-BoldOblique-42" d="M 1241 2119 
L 972 738 
L 1588 738 
Q 2075 738 2304 945 
Q 2534 1153 2534 1594 
Q 2534 1863 2368 1991 
Q 2203 2119 1856 2119 
L 1241 2119 
z
M 1594 3938 
L 1381 2853 
L 1997 2853 
Q 2375 2853 2567 3023 
Q 2759 3194 2759 3525 
Q 2759 3738 2625 3838 
Q 2491 3938 2209 3938 
L 1594 3938 
z
M 844 4672 
L 2350 4672 
Q 3009 4672 3345 4412 
Q 3681 4153 3681 3641 
Q 3681 3138 3384 2828 
Q 3088 2519 2541 2456 
Q 2975 2419 3215 2172 
Q 3456 1925 3456 1516 
Q 3456 1178 3337 886 
Q 3219 594 3003 397 
Q 2769 188 2409 94 
Q 2050 0 1441 0 
L -63 0 
L 844 4672 
z
" transform="scale(0.015625)"/>
      <path id="DejaVuSansMono-BoldOblique-69" d="M 966 3500 
L 2778 3500 
L 2234 703 
L 3372 703 
L 3238 0 
L 44 0 
L 178 703 
L 1319 703 
L 1728 2797 
L 831 2797 
L 966 3500 
z
M 2194 5203 
L 3109 5203 
L 2900 4134 
L 1984 4134 
L 2194 5203 
z
" transform="scale(0.015625)"/>
      <path id="DejaVuSansMono-BoldOblique-6e" d="M 3444 2275 
L 3003 0 
L 2088 0 
L 2503 2131 
Q 2519 2213 2526 2295 
Q 2534 2378 2534 2463 
Q 2534 2644 2443 2739 
Q 2353 2834 2181 2834 
Q 1925 2834 1742 2609 
Q 1559 2384 1478 1966 
L 1100 0 
L 184 0 
L 863 3500 
L 1778 3500 
L 1678 2975 
Q 1828 3263 2090 3423 
Q 2353 3584 2669 3584 
Q 3069 3584 3284 3367 
Q 3500 3150 3500 2753 
Q 3500 2659 3486 2540 
Q 3472 2422 3444 2275 
z
" transform="scale(0.015625)"/>
      <path id="DejaVuSansMono-BoldOblique-61" d="M 2156 1656 
Q 1619 1656 1359 1493 
Q 1100 1331 1100 991 
Q 1100 794 1226 666 
Q 1353 538 1550 538 
Q 1919 538 2169 828 
Q 2419 1119 2509 1656 
L 2156 1656 
z
M 3481 1997 
L 3097 0 
L 2188 0 
L 2266 391 
Q 2056 150 1786 29 
Q 1516 -91 1172 -91 
Q 700 -91 423 182 
Q 147 456 147 922 
Q 147 1594 633 1948 
Q 1119 2303 2034 2303 
L 2638 2303 
L 2663 2456 
Q 2666 2475 2667 2492 
Q 2669 2509 2669 2547 
Q 2669 2725 2509 2819 
Q 2350 2913 2047 2913 
Q 1791 2913 1467 2823 
Q 1144 2734 775 2559 
L 922 3341 
Q 1275 3463 1589 3523 
Q 1903 3584 2188 3584 
Q 2866 3584 3216 3346 
Q 3566 3109 3566 2650 
Q 3566 2528 3544 2362 
Q 3522 2197 3481 1997 
z
" transform="scale(0.015625)"/>
      <path id="DejaVuSansMono-BoldOblique-72" d="M 3669 2547 
Q 3519 2681 3334 2745 
Q 3150 2809 2919 2809 
Q 2400 2809 2120 2534 
Q 1841 2259 1716 1613 
L 1403 0 
L 481 0 
L 1166 3500 
L 2081 3500 
L 1972 2956 
Q 2166 3256 2475 3420 
Q 2784 3584 3156 3584 
Q 3350 3584 3523 3537 
Q 3697 3491 3834 3406 
L 3669 2547 
z
" transform="scale(0.015625)"/>
      <path id="DejaVuSansMono-BoldOblique-79" d="M 1722 -378 
Q 1372 -997 1117 -1161 
Q 863 -1325 469 -1325 
L -281 -1325 
L -141 -628 
L 225 -628 
Q 497 -628 653 -534 
Q 809 -441 997 -91 
L 1119 141 
L 441 3500 
L 1369 3500 
L 1766 1313 
L 2963 3500 
L 3928 3500 
L 1722 -378 
z
" transform="scale(0.015625)"/>
      <path id="DejaVuSansMono-BoldOblique-20" transform="scale(0.015625)"/>
      <path id="DejaVuSansMono-BoldOblique-53" d="M 1581 2075 
Q 981 2325 787 2559 
Q 594 2794 594 3188 
Q 594 3875 1098 4312 
Q 1603 4750 2406 4750 
Q 2728 4750 3033 4686 
Q 3338 4622 3622 4494 
L 3444 3603 
Q 3231 3797 2947 3895 
Q 2663 3994 2316 3994 
Q 1947 3994 1715 3817 
Q 1484 3641 1484 3366 
Q 1484 3103 2059 2844 
L 2081 2834 
L 2444 2675 
Q 2900 2472 3111 2186 
Q 3322 1900 3322 1484 
Q 3322 766 2819 337 
Q 2316 -91 1459 -91 
Q 1116 -91 758 -9 
Q 400 72 13 238 
L 197 1191 
Q 500 938 831 805 
Q 1163 672 1497 672 
Q 1913 672 2150 855 
Q 2388 1038 2388 1350 
Q 2388 1544 2278 1686 
Q 2169 1828 1953 1919 
L 1581 2075 
z
" transform="scale(0.015625)"/>
      <path id="DejaVuSansMono-BoldOblique-74" d="M 2650 4494 
L 2456 3500 
L 3653 3500 
L 3519 2797 
L 2322 2797 
L 1997 1141 
Q 1984 1078 1978 1031 
Q 1972 984 1972 959 
Q 1972 819 2065 761 
Q 2159 703 2406 703 
L 3109 703 
L 2975 0 
L 2209 0 
Q 1572 0 1305 173 
Q 1038 347 1038 750 
Q 1038 816 1052 922 
Q 1066 1028 1094 1184 
L 1409 2797 
L 513 2797 
L 647 3500 
L 1544 3500 
L 1734 4494 
L 2650 4494 
z
" transform="scale(0.015625)"/>
      <path id="DejaVuSansMono-BoldOblique-67" d="M 1625 769 
Q 1984 769 2246 1183 
Q 2509 1597 2509 2181 
Q 2509 2494 2381 2667 
Q 2253 2841 2028 2841 
Q 1672 2841 1409 2427 
Q 1147 2013 1147 1434 
Q 1147 1116 1272 942 
Q 1397 769 1625 769 
z
M 3084 263 
Q 2919 -603 2487 -964 
Q 2056 -1325 1203 -1325 
Q 897 -1325 612 -1278 
Q 328 -1231 56 -1141 
L 225 -313 
Q 459 -453 717 -523 
Q 975 -594 1247 -594 
Q 1638 -594 1858 -411 
Q 2078 -228 2150 159 
L 2234 575 
Q 2066 316 1823 183 
Q 1581 50 1281 50 
Q 791 50 502 376 
Q 213 703 213 1259 
Q 213 1694 344 2134 
Q 475 2575 703 2913 
Q 922 3234 1236 3415 
Q 1550 3597 1881 3597 
Q 2206 3597 2417 3425 
Q 2628 3253 2694 2931 
L 2803 3500 
L 3719 3500 
L 3084 263 
z
" transform="scale(0.015625)"/>
      <path id="DejaVuSansMono-BoldOblique-3a" d="M 1594 3322 
L 2638 3322 
L 2413 2181 
L 1369 2181 
L 1594 3322 
z
M 1172 1147 
L 2216 1147 
L 1997 0 
L 953 0 
L 1172 1147 
z
" transform="scale(0.015625)"/>
      <path id="DejaVuSansMono-BoldOblique-31" d="M 294 813 
L 1325 813 
L 1913 3841 
L 909 3603 
L 1069 4434 
L 2088 4666 
L 2969 4666 
L 2222 813 
L 3188 813 
L 3028 0 
L 134 0 
L 294 813 
z
" transform="scale(0.015625)"/>
      <path id="DejaVuSansMono-BoldOblique-30" d="M 1528 2328 
Q 1528 2494 1642 2606 
Q 1756 2719 1919 2719 
Q 2084 2719 2200 2605 
Q 2316 2491 2316 2328 
Q 2316 2169 2200 2055 
Q 2084 1941 1919 1941 
Q 1756 1941 1642 2052 
Q 1528 2163 1528 2328 
z
M 1197 1375 
Q 1197 1022 1303 853 
Q 1409 684 1631 684 
Q 1831 684 1998 850 
Q 2166 1016 2278 1325 
Q 2447 1800 2548 2344 
Q 2650 2888 2650 3284 
Q 2650 3641 2547 3808 
Q 2444 3975 2222 3975 
Q 2013 3975 1847 3812 
Q 1681 3650 1569 3334 
Q 1400 2869 1298 2325 
Q 1197 1781 1197 1375 
z
M 3572 3347 
Q 3572 2681 3412 1995 
Q 3253 1309 2988 813 
Q 2759 384 2382 146 
Q 2006 -91 1556 -91 
Q 953 -91 617 278 
Q 281 647 281 1313 
Q 281 1972 439 2662 
Q 597 3353 856 3841 
Q 1088 4269 1466 4509 
Q 1844 4750 2291 4750 
Q 2894 4750 3233 4379 
Q 3572 4009 3572 3347 
z
" transform="scale(0.015625)"/>
     </defs>
     <use xlink:href="#DejaVuSansMono-BoldOblique-42"/>
     <use xlink:href="#DejaVuSansMono-BoldOblique-69" x="60.205078"/>
     <use xlink:href="#DejaVuSansMono-BoldOblique-6e" x="120.410156"/>
     <use xlink:href="#DejaVuSansMono-BoldOblique-61" x="180.615234"/>
     <use xlink:href="#DejaVuSansMono-BoldOblique-72" x="240.820312"/>
     <use xlink:href="#DejaVuSansMono-BoldOblique-79" x="301.025391"/>
     <use xlink:href="#DejaVuSansMono-BoldOblique-20" x="361.230469"/>
     <use xlink:href="#DejaVuSansMono-BoldOblique-53" x="421.435547"/>
     <use xlink:href="#DejaVuSansMono-BoldOblique-74" x="481.640625"/>
     <use xlink:href="#DejaVuSansMono-BoldOblique-72" x="541.845703"/>
     <use xlink:href="#DejaVuSansMono-BoldOblique-69" x="602.050781"/>
     <use xlink:href="#DejaVuSansMono-BoldOblique-6e" x="662.255859"/>
     <use xlink:href="#DejaVuSansMono-BoldOblique-67" x="722.460938"/>
     <use xlink:href="#DejaVuSansMono-BoldOblique-20" x="782.666016"/>
     <use xlink:href="#DejaVuSansMono-BoldOblique-3a" x="842.871094"/>
     <use xlink:href="#DejaVuSansMono-BoldOblique-20" x="903.076172"/>
     <use xlink:href="#DejaVuSansMono-BoldOblique-31" x="963.28125"/>
     <use xlink:href="#DejaVuSansMono-BoldOblique-30" x="1023.486328"/>
     <use xlink:href="#DejaVuSansMono-BoldOblique-30" x="1083.691406"/>
     <use xlink:href="#DejaVuSansMono-BoldOblique-31" x="1143.896484"/>
     <use xlink:href="#DejaVuSansMono-BoldOblique-30" x="1204.101562"/>
     <use xlink:href="#DejaVuSansMono-BoldOblique-31" x="1264.306641"/>
     <use xlink:href="#DejaVuSansMono-BoldOblique-30" x="1324.511719"/>
    </g>
   </g>
  </g>
  <g id="text_19">
   <!-- NRZ-L with Noise -->
   <g transform="translate(179.042813 16.030125) scale(0.12 -0.12)">
    <defs>
     <path id="DejaVuSans-4e" d="M 628 4666 
L 1478 4666 
L 3547 763 
L 3547 4666 
L 4159 4666 
L 4159 0 
L 3309 0 
L 1241 3903 
L 1241 0 
L 628 0 
L 628 4666 
z
" transform="scale(0.015625)"/>
     <path id="DejaVuSans-52" d="M 2841 2188 
Q 3044 2119 3236 1894 
Q 3428 1669 3622 1275 
L 4263 0 
L 3584 0 
L 2988 1197 
Q 2756 1666 2539 1819 
Q 2322 1972 1947 1972 
L 1259 1972 
L 1259 0 
L 628 0 
L 628 4666 
L 2053 4666 
Q 2853 4666 3247 4331 
Q 3641 3997 3641 3322 
Q 3641 2881 3436 2590 
Q 3231 2300 2841 2188 
z
M 1259 4147 
L 1259 2491 
L 2053 2491 
Q 2509 2491 2742 2702 
Q 2975 2913 2975 3322 
Q 2975 3731 2742 3939 
Q 2509 4147 2053 4147 
L 1259 4147 
z
" transform="scale(0.015625)"/>
     <path id="DejaVuSans-5a" d="M 359 4666 
L 4025 4666 
L 4025 4184 
L 1075 531 
L 4097 531 
L 4097 0 
L 288 0 
L 288 481 
L 3238 4134 
L 359 4134 
L 359 4666 
z
" transform="scale(0.015625)"/>
     <path id="DejaVuSans-2d" d="M 313 2009 
L 1997 2009 
L 1997 1497 
L 313 1497 
L 313 2009 
z
" transform="scale(0.015625)"/>
     <path id="DejaVuSans-4c" d="M 628 4666 
L 1259 4666 
L 1259 531 
L 3531 531 
L 3531 0 
L 628 0 
L 628 4666 
z
" transform="scale(0.015625)"/>
     <path id="DejaVuSans-20" transform="scale(0.015625)"/>
     <path id="DejaVuSans-77" d="M 269 3500 
L 844 3500 
L 1563 769 
L 2278 3500 
L 2956 3500 
L 3675 769 
L 4391 3500 
L 4966 3500 
L 4050 0 
L 3372 0 
L 2619 2869 
L 1863 0 
L 1184 0 
L 269 3500 
z
" transform="scale(0.015625)"/>
     <path id="DejaVuSans-68" d="M 3513 2113 
L 3513 0 
L 2938 0 
L 2938 2094 
Q 2938 2591 2744 2837 
Q 2550 3084 2163 3084 
Q 1697 3084 1428 2787 
Q 1159 2491 1159 1978 
L 1159 0 
L 581 0 
L 581 4863 
L 1159 4863 
L 1159 2956 
Q 1366 3272 1645 3428 
Q 1925 3584 2291 3584 
Q 2894 3584 3203 3211 
Q 3513 2838 3513 2113 
z
" transform="scale(0.015625)"/>
     <path id="DejaVuSans-73" d="M 2834 3397 
L 2834 2853 
Q 2591 2978 2328 3040 
Q 2066 3103 1784 3103 
Q 1356 3103 1142 2972 
Q 928 2841 928 2578 
Q 928 2378 1081 2264 
Q 1234 2150 1697 2047 
L 1894 2003 
Q 2506 1872 2764 1633 
Q 3022 1394 3022 966 
Q 3022 478 2636 193 
Q 2250 -91 1575 -91 
Q 1294 -91 989 -36 
Q 684 19 347 128 
L 347 722 
Q 666 556 975 473 
Q 1284 391 1588 391 
Q 1994 391 2212 530 
Q 2431 669 2431 922 
Q 2431 1156 2273 1281 
Q 2116 1406 1581 1522 
L 1381 1569 
Q 847 1681 609 1914 
Q 372 2147 372 2553 
Q 372 3047 722 3315 
Q 1072 3584 1716 3584 
Q 2034 3584 2315 3537 
Q 2597 3491 2834 3397 
z
" transform="scale(0.015625)"/>
    </defs>
    <use xlink:href="#DejaVuSans-4e"/>
    <use xlink:href="#DejaVuSans-52" x="74.804688"/>
    <use xlink:href="#DejaVuSans-5a" x="144.287109"/>
    <use xlink:href="#DejaVuSans-2d" x="211.042969"/>
    <use xlink:href="#DejaVuSans-4c" x="247.126953"/>
    <use xlink:href="#DejaVuSans-20" x="302.839844"/>
    <use xlink:href="#DejaVuSans-77" x="334.626953"/>
    <use xlink:href="#DejaVuSans-69" x="416.414062"/>
    <use xlink:href="#DejaVuSans-74" x="444.197266"/>
    <use xlink:href="#DejaVuSans-68" x="483.40625"/>
    <use xlink:href="#DejaVuSans-20" x="546.785156"/>
    <use xlink:href="#DejaVuSans-4e" x="578.572266"/>
    <use xlink:href="#DejaVuSans-6f" x="653.376953"/>
    <use xlink:href="#DejaVuSans-69" x="714.558594"/>
    <use xlink:href="#DejaVuSans-73" x="742.341797"/>
    <use xlink:href="#DejaVuSans-65" x="794.441406"/>
   </g>
  </g>
 </g>
 <defs>
  <clipPath id="p59e4bf0eb3">
   <rect x="57.6" y="41.472" width="357.12" height="266.112"/>
  </clipPath>
 </defs>
</svg>
