<?xml version="1.0" encoding="utf-8" standalone="no"?>
<!DOCTYPE svg PUBLIC "-//W3C//DTD SVG 1.1//EN"
  "http://www.w3.org/Graphics/SVG/1.1/DTD/svg11.dtd">
<svg xmlns:xlink="http://www.w3.org/1999/xlink" width="460.8pt" height="345.6pt" viewBox="0 0 460.8 345.6" xmlns="http://www.w3.org/2000/svg" version="1.1">
 <metadata>
  <rdf:RDF xmlns:dc="http://purl.org/dc/elements/1.1/" xmlns:cc="http://creativecommons.org/ns#" xmlns:rdf="http://www.w3.org/1999/02/22-rdf-syntax-ns#">
   <cc:Work>
    <dc:type rdf:resource="http://purl.org/dc/dcmitype/StillImage"/>
    <dc:date>2024-01-05T13:42:06.279357</dc:date>
    <dc:format>image/svg+xml</dc:format>
    <dc:creator>
     <cc:Agent>
      <dc:title>Matplotlib v3.8.2, https://matplotlib.org/</dc:title>
     </cc:Agent>
    </dc:creator>
   </cc:Work>
  </rdf:RDF>
 </metadata>
 <defs>
  <style type="text/css">*{stroke-linejoin: round; stroke-linecap: butt}</style>
 </defs>
 <g id="figure_1">
  <g id="patch_1">
   <path d="M 0 345.6 
L 460.8 345.6 
L 460.8 0 
L 0 0 
z
" style="fill: #ffffff"/>
  </g>
  <g id="axes_1">
   <g id="patch_2">
    <path d="M 57.6 307.584 
L 414.72 307.584 
L 414.72 41.472 
L 57.6 41.472 
z
" style="fill: #ffffff"/>
   </g>
   <g id="matplotlib.axis_1">
    <g id="xtick_1">
     <g id="line2d_1">
      <defs>
       <path id="m045c804859" d="M 0 0 
L 0 3.5 
" style="stroke: #000000; stroke-width: 0.8"/>
      </defs>
      <g>
       <use xlink:href="#m045c804859" x="73.832727" y="307.584" style="stroke: #000000; stroke-width: 0.8"/>
      </g>
     </g>
     <g id="text_1">
      <!-- 0 -->
      <g transform="translate(70.651477 322.182437) scale(0.1 -0.1)">
       <defs>
        <path id="DejaVuSans-30" d="M 2034 4250 
Q 1547 4250 1301 3770 
Q 1056 3291 1056 2328 
Q 1056 1369 1301 889 
Q 1547 409 2034 409 
Q 2525 409 2770 889 
Q 3016 1369 3016 2328 
Q 3016 3291 2770 3770 
Q 2525 4250 2034 4250 
z
M 2034 4750 
Q 2819 4750 3233 4129 
Q 3647 3509 3647 2328 
Q 3647 1150 3233 529 
Q 2819 -91 2034 -91 
Q 1250 -91 836 529 
Q 422 1150 422 2328 
Q 422 3509 836 4129 
Q 1250 4750 2034 4750 
z
" transform="scale(0.015625)"/>
       </defs>
       <use xlink:href="#DejaVuSans-30"/>
      </g>
     </g>
    </g>
    <g id="xtick_2">
     <g id="line2d_2">
      <g>
       <use xlink:href="#m045c804859" x="145.978182" y="307.584" style="stroke: #000000; stroke-width: 0.8"/>
      </g>
     </g>
     <g id="text_2">
      <!-- 2 -->
      <g transform="translate(142.796932 322.182437) scale(0.1 -0.1)">
       <defs>
        <path id="DejaVuSans-32" d="M 1228 531 
L 3431 531 
L 3431 0 
L 469 0 
L 469 531 
Q 828 903 1448 1529 
Q 2069 2156 2228 2338 
Q 2531 2678 2651 2914 
Q 2772 3150 2772 3378 
Q 2772 3750 2511 3984 
Q 2250 4219 1831 4219 
Q 1534 4219 1204 4116 
Q 875 4013 500 3803 
L 500 4441 
Q 881 4594 1212 4672 
Q 1544 4750 1819 4750 
Q 2544 4750 2975 4387 
Q 3406 4025 3406 3419 
Q 3406 3131 3298 2873 
Q 3191 2616 2906 2266 
Q 2828 2175 2409 1742 
Q 1991 1309 1228 531 
z
" transform="scale(0.015625)"/>
       </defs>
       <use xlink:href="#DejaVuSans-32"/>
      </g>
     </g>
    </g>
    <g id="xtick_3">
     <g id="line2d_3">
      <g>
       <use xlink:href="#m045c804859" x="218.123636" y="307.584" style="stroke: #000000; stroke-width: 0.8"/>
      </g>
     </g>
     <g id="text_3">
      <!-- 4 -->
      <g transform="translate(214.942386 322.182437) scale(0.1 -0.1)">
       <defs>
        <path id="DejaVuSans-34" d="M 2419 4116 
L 825 1625 
L 2419 1625 
L 2419 4116 
z
M 2253 4666 
L 3047 4666 
L 3047 1625 
L 3713 1625 
L 3713 1100 
L 3047 1100 
L 3047 0 
L 2419 0 
L 2419 1100 
L 313 1100 
L 313 1709 
L 2253 4666 
z
" transform="scale(0.015625)"/>
       </defs>
       <use xlink:href="#DejaVuSans-34"/>
      </g>
     </g>
    </g>
    <g id="xtick_4">
     <g id="line2d_4">
      <g>
       <use xlink:href="#m045c804859" x="290.269091" y="307.584" style="stroke: #000000; stroke-width: 0.8"/>
      </g>
     </g>
     <g id="text_4">
      <!-- 6 -->
      <g transform="translate(287.087841 322.182437) scale(0.1 -0.1)">
       <defs>
        <path id="DejaVuSans-36" d="M 2113 2584 
Q 1688 2584 1439 2293 
Q 1191 2003 1191 1497 
Q 1191 994 1439 701 
Q 1688 409 2113 409 
Q 2538 409 2786 701 
Q 3034 994 3034 1497 
Q 3034 2003 2786 2293 
Q 2538 2584 2113 2584 
z
M 3366 4563 
L 3366 3988 
Q 3128 4100 2886 4159 
Q 2644 4219 2406 4219 
Q 1781 4219 1451 3797 
Q 1122 3375 1075 2522 
Q 1259 2794 1537 2939 
Q 1816 3084 2150 3084 
Q 2853 3084 3261 2657 
Q 3669 2231 3669 1497 
Q 3669 778 3244 343 
Q 2819 -91 2113 -91 
Q 1303 -91 875 529 
Q 447 1150 447 2328 
Q 447 3434 972 4092 
Q 1497 4750 2381 4750 
Q 2619 4750 2861 4703 
Q 3103 4656 3366 4563 
z
" transform="scale(0.015625)"/>
       </defs>
       <use xlink:href="#DejaVuSans-36"/>
      </g>
     </g>
    </g>
    <g id="xtick_5">
     <g id="line2d_5">
      <g>
       <use xlink:href="#m045c804859" x="362.414545" y="307.584" style="stroke: #000000; stroke-width: 0.8"/>
      </g>
     </g>
     <g id="text_5">
      <!-- 8 -->
      <g transform="translate(359.233295 322.182437) scale(0.1 -0.1)">
       <defs>
        <path id="DejaVuSans-38" d="M 2034 2216 
Q 1584 2216 1326 1975 
Q 1069 1734 1069 1313 
Q 1069 891 1326 650 
Q 1584 409 2034 409 
Q 2484 409 2743 651 
Q 3003 894 3003 1313 
Q 3003 1734 2745 1975 
Q 2488 2216 2034 2216 
z
M 1403 2484 
Q 997 2584 770 2862 
Q 544 3141 544 3541 
Q 544 4100 942 4425 
Q 1341 4750 2034 4750 
Q 2731 4750 3128 4425 
Q 3525 4100 3525 3541 
Q 3525 3141 3298 2862 
Q 3072 2584 2669 2484 
Q 3125 2378 3379 2068 
Q 3634 1759 3634 1313 
Q 3634 634 3220 271 
Q 2806 -91 2034 -91 
Q 1263 -91 848 271 
Q 434 634 434 1313 
Q 434 1759 690 2068 
Q 947 2378 1403 2484 
z
M 1172 3481 
Q 1172 3119 1398 2916 
Q 1625 2713 2034 2713 
Q 2441 2713 2670 2916 
Q 2900 3119 2900 3481 
Q 2900 3844 2670 4047 
Q 2441 4250 2034 4250 
Q 1625 4250 1398 4047 
Q 1172 3844 1172 3481 
z
" transform="scale(0.015625)"/>
       </defs>
       <use xlink:href="#DejaVuSans-38"/>
      </g>
     </g>
    </g>
   </g>
   <g id="matplotlib.axis_2">
    <g id="ytick_1">
     <g id="line2d_6">
      <defs>
       <path id="m98dbd7f085" d="M 0 0 
L -3.5 0 
" style="stroke: #000000; stroke-width: 0.8"/>
      </defs>
      <g>
       <use xlink:href="#m98dbd7f085" x="57.6" y="275.328" style="stroke: #000000; stroke-width: 0.8"/>
      </g>
     </g>
     <g id="text_6">
      <!-- −4 -->
      <g transform="translate(35.857813 279.127219) scale(0.1 -0.1)">
       <defs>
        <path id="DejaVuSans-2212" d="M 678 2272 
L 4684 2272 
L 4684 1741 
L 678 1741 
L 678 2272 
z
" transform="scale(0.015625)"/>
       </defs>
       <use xlink:href="#DejaVuSans-2212"/>
       <use xlink:href="#DejaVuSans-34" x="83.789062"/>
      </g>
     </g>
    </g>
    <g id="ytick_2">
     <g id="line2d_7">
      <g>
       <use xlink:href="#m98dbd7f085" x="57.6" y="235.008" style="stroke: #000000; stroke-width: 0.8"/>
      </g>
     </g>
     <g id="text_7">
      <!-- −2 -->
      <g transform="translate(35.857813 238.807219) scale(0.1 -0.1)">
       <use xlink:href="#DejaVuSans-2212"/>
       <use xlink:href="#DejaVuSans-32" x="83.789062"/>
      </g>
     </g>
    </g>
    <g id="ytick_3">
     <g id="line2d_8">
      <g>
       <use xlink:href="#m98dbd7f085" x="57.6" y="194.688" style="stroke: #000000; stroke-width: 0.8"/>
      </g>
     </g>
     <g id="text_8">
      <!-- 0 -->
      <g transform="translate(44.2375 198.487219) scale(0.1 -0.1)">
       <use xlink:href="#DejaVuSans-30"/>
      </g>
     </g>
    </g>
    <g id="ytick_4">
     <g id="line2d_9">
      <g>
       <use xlink:href="#m98dbd7f085" x="57.6" y="154.368" style="stroke: #000000; stroke-width: 0.8"/>
      </g>
     </g>
     <g id="text_9">
      <!-- 2 -->
      <g transform="translate(44.2375 158.167219) scale(0.1 -0.1)">
       <use xlink:href="#DejaVuSans-32"/>
      </g>
     </g>
    </g>
    <g id="ytick_5">
     <g id="line2d_10">
      <g>
       <use xlink:href="#m98dbd7f085" x="57.6" y="114.048" style="stroke: #000000; stroke-width: 0.8"/>
      </g>
     </g>
     <g id="text_10">
      <!-- 4 -->
      <g transform="translate(44.2375 117.847219) scale(0.1 -0.1)">
       <use xlink:href="#DejaVuSans-34"/>
      </g>
     </g>
    </g>
    <g id="ytick_6">
     <g id="line2d_11">
      <g>
       <use xlink:href="#m98dbd7f085" x="57.6" y="73.728" style="stroke: #000000; stroke-width: 0.8"/>
      </g>
     </g>
     <g id="text_11">
      <!-- 6 -->
      <g transform="translate(44.2375 77.527219) scale(0.1 -0.1)">
       <use xlink:href="#DejaVuSans-36"/>
      </g>
     </g>
    </g>
   </g>
   <g id="line2d_12">
    <path d="M 73.832727 93.888 
L 109.905455 93.888 
L 145.978182 93.888 
L 182.050909 93.888 
L 182.050909 295.488 
L 218.123636 295.488 
L 254.196364 295.488 
L 254.196364 93.888 
L 290.269091 93.888 
L 290.269091 194.688 
L 326.341818 174.528 
L 326.341818 134.208 
L 362.414545 194.688 
L 362.414545 114.048 
L 398.487273 174.528 
L 398.487273 53.568 
" clip-path="url(#pc18d15850c)" style="fill: none; stroke: #1f77b4; stroke-width: 1.5; stroke-linecap: square"/>
    <defs>
     <path id="m96efe909a5" d="M 0 3 
C 0.795609 3 1.55874 2.683901 2.12132 2.12132 
C 2.683901 1.55874 3 0.795609 3 0 
C 3 -0.795609 2.683901 -1.55874 2.12132 -2.12132 
C 1.55874 -2.683901 0.795609 -3 0 -3 
C -0.795609 -3 -1.55874 -2.683901 -2.12132 -2.12132 
C -2.683901 -1.55874 -3 -0.795609 -3 0 
C -3 0.795609 -2.683901 1.55874 -2.12132 2.12132 
C -1.55874 2.683901 -0.795609 3 0 3 
z
" style="stroke: #1f77b4"/>
    </defs>
    <g clip-path="url(#pc18d15850c)">
     <use xlink:href="#m96efe909a5" x="73.832727" y="93.888" style="fill: #1f77b4; stroke: #1f77b4"/>
     <use xlink:href="#m96efe909a5" x="109.905455" y="93.888" style="fill: #1f77b4; stroke: #1f77b4"/>
     <use xlink:href="#m96efe909a5" x="145.978182" y="93.888" style="fill: #1f77b4; stroke: #1f77b4"/>
     <use xlink:href="#m96efe909a5" x="182.050909" y="93.888" style="fill: #1f77b4; stroke: #1f77b4"/>
     <use xlink:href="#m96efe909a5" x="182.050909" y="295.488" style="fill: #1f77b4; stroke: #1f77b4"/>
     <use xlink:href="#m96efe909a5" x="218.123636" y="295.488" style="fill: #1f77b4; stroke: #1f77b4"/>
     <use xlink:href="#m96efe909a5" x="254.196364" y="295.488" style="fill: #1f77b4; stroke: #1f77b4"/>
     <use xlink:href="#m96efe909a5" x="254.196364" y="93.888" style="fill: #1f77b4; stroke: #1f77b4"/>
     <use xlink:href="#m96efe909a5" x="290.269091" y="93.888" style="fill: #1f77b4; stroke: #1f77b4"/>
     <use xlink:href="#m96efe909a5" x="290.269091" y="194.688" style="fill: #1f77b4; stroke: #1f77b4"/>
     <use xlink:href="#m96efe909a5" x="326.341818" y="174.528" style="fill: #1f77b4; stroke: #1f77b4"/>
     <use xlink:href="#m96efe909a5" x="326.341818" y="134.208" style="fill: #1f77b4; stroke: #1f77b4"/>
     <use xlink:href="#m96efe909a5" x="362.414545" y="194.688" style="fill: #1f77b4; stroke: #1f77b4"/>
     <use xlink:href="#m96efe909a5" x="362.414545" y="114.048" style="fill: #1f77b4; stroke: #1f77b4"/>
     <use xlink:href="#m96efe909a5" x="398.487273" y="174.528" style="fill: #1f77b4; stroke: #1f77b4"/>
     <use xlink:href="#m96efe909a5" x="398.487273" y="53.568" style="fill: #1f77b4; stroke: #1f77b4"/>
    </g>
   </g>
   <g id="patch_3">
    <path d="M 57.6 307.584 
L 57.6 41.472 
" style="fill: none; stroke: #000000; stroke-width: 0.8; stroke-linejoin: miter; stroke-linecap: square"/>
   </g>
   <g id="patch_4">
    <path d="M 414.72 307.584 
L 414.72 41.472 
" style="fill: none; stroke: #000000; stroke-width: 0.8; stroke-linejoin: miter; stroke-linecap: square"/>
   </g>
   <g id="patch_5">
    <path d="M 57.6 307.584 
L 414.72 307.584 
" style="fill: none; stroke: #000000; stroke-width: 0.8; stroke-linejoin: miter; stroke-linecap: square"/>
   </g>
   <g id="patch_6">
    <path d="M 57.6 41.472 
L 414.72 41.472 
" style="fill: none; stroke: #000000; stroke-width: 0.8; stroke-linejoin: miter; stroke-linecap: square"/>
   </g>
   <g id="text_12">
    <!-- Binary String : [1, 1, 1, 0, 0, 1, 1] -->
    <g transform="translate(57.6 35.472) scale(0.12 -0.12)">
     <defs>
      <path id="DejaVuSansMono-BoldOblique-42" d="M 1241 2119 
L 972 738 
L 1588 738 
Q 2075 738 2304 945 
Q 2534 1153 2534 1594 
Q 2534 1863 2368 1991 
Q 2203 2119 1856 2119 
L 1241 2119 
z
M 1594 3938 
L 1381 2853 
L 1997 2853 
Q 2375 2853 2567 3023 
Q 2759 3194 2759 3525 
Q 2759 3738 2625 3838 
Q 2491 3938 2209 3938 
L 1594 3938 
z
M 844 4672 
L 2350 4672 
Q 3009 4672 3345 4412 
Q 3681 4153 3681 3641 
Q 3681 3138 3384 2828 
Q 3088 2519 2541 2456 
Q 2975 2419 3215 2172 
Q 3456 1925 3456 1516 
Q 3456 1178 3337 886 
Q 3219 594 3003 397 
Q 2769 188 2409 94 
Q 2050 0 1441 0 
L -63 0 
L 844 4672 
z
" transform="scale(0.015625)"/>
      <path id="DejaVuSansMono-BoldOblique-69" d="M 966 3500 
L 2778 3500 
L 2234 703 
L 3372 703 
L 3238 0 
L 44 0 
L 178 703 
L 1319 703 
L 1728 2797 
L 831 2797 
L 966 3500 
z
M 2194 5203 
L 3109 5203 
L 2900 4134 
L 1984 4134 
L 2194 5203 
z
" transform="scale(0.015625)"/>
      <path id="DejaVuSansMono-BoldOblique-6e" d="M 3444 2275 
L 3003 0 
L 2088 0 
L 2503 2131 
Q 2519 2213 2526 2295 
Q 2534 2378 2534 2463 
Q 2534 2644 2443 2739 
Q 2353 2834 2181 2834 
Q 1925 2834 1742 2609 
Q 1559 2384 1478 1966 
L 1100 0 
L 184 0 
L 863 3500 
L 1778 3500 
L 1678 2975 
Q 1828 3263 2090 3423 
Q 2353 3584 2669 3584 
Q 3069 3584 3284 3367 
Q 3500 3150 3500 2753 
Q 3500 2659 3486 2540 
Q 3472 2422 3444 2275 
z
" transform="scale(0.015625)"/>
      <path id="DejaVuSansMono-BoldOblique-61" d="M 2156 1656 
Q 1619 1656 1359 1493 
Q 1100 1331 1100 991 
Q 1100 794 1226 666 
Q 1353 538 1550 538 
Q 1919 538 2169 828 
Q 2419 1119 2509 1656 
L 2156 1656 
z
M 3481 1997 
L 3097 0 
L 2188 0 
L 2266 391 
Q 2056 150 1786 29 
Q 1516 -91 1172 -91 
Q 700 -91 423 182 
Q 147 456 147 922 
Q 147 1594 633 1948 
Q 1119 2303 2034 2303 
L 2638 2303 
L 2663 2456 
Q 2666 2475 2667 2492 
Q 2669 2509 2669 2547 
Q 2669 2725 2509 2819 
Q 2350 2913 2047 2913 
Q 1791 2913 1467 2823 
Q 1144 2734 775 2559 
L 922 3341 
Q 1275 3463 1589 3523 
Q 1903 3584 2188 3584 
Q 2866 3584 3216 3346 
Q 3566 3109 3566 2650 
Q 3566 2528 3544 2362 
Q 3522 2197 3481 1997 
z
" transform="scale(0.015625)"/>
      <path id="DejaVuSansMono-BoldOblique-72" d="M 3669 2547 
Q 3519 2681 3334 2745 
Q 3150 2809 2919 2809 
Q 2400 2809 2120 2534 
Q 1841 2259 1716 1613 
L 1403 0 
L 481 0 
L 1166 3500 
L 2081 3500 
L 1972 2956 
Q 2166 3256 2475 3420 
Q 2784 3584 3156 3584 
Q 3350 3584 3523 3537 
Q 3697 3491 3834 3406 
L 3669 2547 
z
" transform="scale(0.015625)"/>
      <path id="DejaVuSansMono-BoldOblique-79" d="M 1722 -378 
Q 1372 -997 1117 -1161 
Q 863 -1325 469 -1325 
L -281 -1325 
L -141 -628 
L 225 -628 
Q 497 -628 653 -534 
Q 809 -441 997 -91 
L 1119 141 
L 441 3500 
L 1369 3500 
L 1766 1313 
L 2963 3500 
L 3928 3500 
L 1722 -378 
z
" transform="scale(0.015625)"/>
      <path id="DejaVuSansMono-BoldOblique-20" transform="scale(0.015625)"/>
      <path id="DejaVuSansMono-BoldOblique-53" d="M 1581 2075 
Q 981 2325 787 2559 
Q 594 2794 594 3188 
Q 594 3875 1098 4312 
Q 1603 4750 2406 4750 
Q 2728 4750 3033 4686 
Q 3338 4622 3622 4494 
L 3444 3603 
Q 3231 3797 2947 3895 
Q 2663 3994 2316 3994 
Q 1947 3994 1715 3817 
Q 1484 3641 1484 3366 
Q 1484 3103 2059 2844 
L 2081 2834 
L 2444 2675 
Q 2900 2472 3111 2186 
Q 3322 1900 3322 1484 
Q 3322 766 2819 337 
Q 2316 -91 1459 -91 
Q 1116 -91 758 -9 
Q 400 72 13 238 
L 197 1191 
Q 500 938 831 805 
Q 1163 672 1497 672 
Q 1913 672 2150 855 
Q 2388 1038 2388 1350 
Q 2388 1544 2278 1686 
Q 2169 1828 1953 1919 
L 1581 2075 
z
" transform="scale(0.015625)"/>
      <path id="DejaVuSansMono-BoldOblique-74" d="M 2650 4494 
L 2456 3500 
L 3653 3500 
L 3519 2797 
L 2322 2797 
L 1997 1141 
Q 1984 1078 1978 1031 
Q 1972 984 1972 959 
Q 1972 819 2065 761 
Q 2159 703 2406 703 
L 3109 703 
L 2975 0 
L 2209 0 
Q 1572 0 1305 173 
Q 1038 347 1038 750 
Q 1038 816 1052 922 
Q 1066 1028 1094 1184 
L 1409 2797 
L 513 2797 
L 647 3500 
L 1544 3500 
L 1734 4494 
L 2650 4494 
z
" transform="scale(0.015625)"/>
      <path id="DejaVuSansMono-BoldOblique-67" d="M 1625 769 
Q 1984 769 2246 1183 
Q 2509 1597 2509 2181 
Q 2509 2494 2381 2667 
Q 2253 2841 2028 2841 
Q 1672 2841 1409 2427 
Q 1147 2013 1147 1434 
Q 1147 1116 1272 942 
Q 1397 769 1625 769 
z
M 3084 263 
Q 2919 -603 2487 -964 
Q 2056 -1325 1203 -1325 
Q 897 -1325 612 -1278 
Q 328 -1231 56 -1141 
L 225 -313 
Q 459 -453 717 -523 
Q 975 -594 1247 -594 
Q 1638 -594 1858 -411 
Q 2078 -228 2150 159 
L 2234 575 
Q 2066 316 1823 183 
Q 1581 50 1281 50 
Q 791 50 502 376 
Q 213 703 213 1259 
Q 213 1694 344 2134 
Q 475 2575 703 2913 
Q 922 3234 1236 3415 
Q 1550 3597 1881 3597 
Q 2206 3597 2417 3425 
Q 2628 3253 2694 2931 
L 2803 3500 
L 3719 3500 
L 3084 263 
z
" transform="scale(0.015625)"/>
      <path id="DejaVuSansMono-BoldOblique-3a" d="M 1594 3322 
L 2638 3322 
L 2413 2181 
L 1369 2181 
L 1594 3322 
z
M 1172 1147 
L 2216 1147 
L 1997 0 
L 953 0 
L 1172 1147 
z
" transform="scale(0.015625)"/>
      <path id="DejaVuSansMono-BoldOblique-5b" d="M 1813 4863 
L 3397 4863 
L 3278 4269 
L 2522 4269 
L 1644 -250 
L 2400 -250 
L 2284 -844 
L 697 -844 
L 1813 4863 
z
" transform="scale(0.015625)"/>
      <path id="DejaVuSansMono-BoldOblique-31" d="M 294 813 
L 1325 813 
L 1913 3841 
L 909 3603 
L 1069 4434 
L 2088 4666 
L 2969 4666 
L 2222 813 
L 3188 813 
L 3028 0 
L 134 0 
L 294 813 
z
" transform="scale(0.015625)"/>
      <path id="DejaVuSansMono-BoldOblique-2c" d="M 1356 1147 
L 2338 1147 
L 2169 300 
L 1325 -897 
L 653 -897 
L 1191 300 
L 1356 1147 
z
" transform="scale(0.015625)"/>
      <path id="DejaVuSansMono-BoldOblique-30" d="M 1528 2328 
Q 1528 2494 1642 2606 
Q 1756 2719 1919 2719 
Q 2084 2719 2200 2605 
Q 2316 2491 2316 2328 
Q 2316 2169 2200 2055 
Q 2084 1941 1919 1941 
Q 1756 1941 1642 2052 
Q 1528 2163 1528 2328 
z
M 1197 1375 
Q 1197 1022 1303 853 
Q 1409 684 1631 684 
Q 1831 684 1998 850 
Q 2166 1016 2278 1325 
Q 2447 1800 2548 2344 
Q 2650 2888 2650 3284 
Q 2650 3641 2547 3808 
Q 2444 3975 2222 3975 
Q 2013 3975 1847 3812 
Q 1681 3650 1569 3334 
Q 1400 2869 1298 2325 
Q 1197 1781 1197 1375 
z
M 3572 3347 
Q 3572 2681 3412 1995 
Q 3253 1309 2988 813 
Q 2759 384 2382 146 
Q 2006 -91 1556 -91 
Q 953 -91 617 278 
Q 281 647 281 1313 
Q 281 1972 439 2662 
Q 597 3353 856 3841 
Q 1088 4269 1466 4509 
Q 1844 4750 2291 4750 
Q 2894 4750 3233 4379 
Q 3572 4009 3572 3347 
z
" transform="scale(0.015625)"/>
      <path id="DejaVuSansMono-BoldOblique-5d" d="M 1913 -844 
L 331 -844 
L 447 -250 
L 1203 -250 
L 2081 4269 
L 1325 4269 
L 1441 4863 
L 3028 4863 
L 1913 -844 
z
" transform="scale(0.015625)"/>
     </defs>
     <use xlink:href="#DejaVuSansMono-BoldOblique-42"/>
     <use xlink:href="#DejaVuSansMono-BoldOblique-69" x="60.205078"/>
     <use xlink:href="#DejaVuSansMono-BoldOblique-6e" x="120.410156"/>
     <use xlink:href="#DejaVuSansMono-BoldOblique-61" x="180.615234"/>
     <use xlink:href="#DejaVuSansMono-BoldOblique-72" x="240.820312"/>
     <use xlink:href="#DejaVuSansMono-BoldOblique-79" x="301.025391"/>
     <use xlink:href="#DejaVuSansMono-BoldOblique-20" x="361.230469"/>
     <use xlink:href="#DejaVuSansMono-BoldOblique-53" x="421.435547"/>
     <use xlink:href="#DejaVuSansMono-BoldOblique-74" x="481.640625"/>
     <use xlink:href="#DejaVuSansMono-BoldOblique-72" x="541.845703"/>
     <use xlink:href="#DejaVuSansMono-BoldOblique-69" x="602.050781"/>
     <use xlink:href="#DejaVuSansMono-BoldOblique-6e" x="662.255859"/>
     <use xlink:href="#DejaVuSansMono-BoldOblique-67" x="722.460938"/>
     <use xlink:href="#DejaVuSansMono-BoldOblique-20" x="782.666016"/>
     <use xlink:href="#DejaVuSansMono-BoldOblique-3a" x="842.871094"/>
     <use xlink:href="#DejaVuSansMono-BoldOblique-20" x="903.076172"/>
     <use xlink:href="#DejaVuSansMono-BoldOblique-5b" x="963.28125"/>
     <use xlink:href="#DejaVuSansMono-BoldOblique-31" x="1023.486328"/>
     <use xlink:href="#DejaVuSansMono-BoldOblique-2c" x="1083.691406"/>
     <use xlink:href="#DejaVuSansMono-BoldOblique-20" x="1143.896484"/>
     <use xlink:href="#DejaVuSansMono-BoldOblique-31" x="1204.101562"/>
     <use xlink:href="#DejaVuSansMono-BoldOblique-2c" x="1264.306641"/>
     <use xlink:href="#DejaVuSansMono-BoldOblique-20" x="1324.511719"/>
     <use xlink:href="#DejaVuSansMono-BoldOblique-31" x="1384.716797"/>
     <use xlink:href="#DejaVuSansMono-BoldOblique-2c" x="1444.921875"/>
     <use xlink:href="#DejaVuSansMono-BoldOblique-20" x="1505.126953"/>
     <use xlink:href="#DejaVuSansMono-BoldOblique-30" x="1565.332031"/>
     <use xlink:href="#DejaVuSansMono-BoldOblique-2c" x="1625.537109"/>
     <use xlink:href="#DejaVuSansMono-BoldOblique-20" x="1685.742188"/>
     <use xlink:href="#DejaVuSansMono-BoldOblique-30" x="1745.947266"/>
     <use xlink:href="#DejaVuSansMono-BoldOblique-2c" x="1806.152344"/>
     <use xlink:href="#DejaVuSansMono-BoldOblique-20" x="1866.357422"/>
     <use xlink:href="#DejaVuSansMono-BoldOblique-31" x="1926.5625"/>
     <use xlink:href="#DejaVuSansMono-BoldOblique-2c" x="1986.767578"/>
     <use xlink:href="#DejaVuSansMono-BoldOblique-20" x="2046.972656"/>
     <use xlink:href="#DejaVuSansMono-BoldOblique-31" x="2107.177734"/>
     <use xlink:href="#DejaVuSansMono-BoldOblique-5d" x="2167.382812"/>
    </g>
   </g>
  </g>
  <g id="text_13">
   <!-- NRZ-L without Noise -->
   <g transform="translate(169.216875 16.030125) scale(0.12 -0.12)">
    <defs>
     <path id="DejaVuSans-4e" d="M 628 4666 
L 1478 4666 
L 3547 763 
L 3547 4666 
L 4159 4666 
L 4159 0 
L 3309 0 
L 1241 3903 
L 1241 0 
L 628 0 
L 628 4666 
z
" transform="scale(0.015625)"/>
     <path id="DejaVuSans-52" d="M 2841 2188 
Q 3044 2119 3236 1894 
Q 3428 1669 3622 1275 
L 4263 0 
L 3584 0 
L 2988 1197 
Q 2756 1666 2539 1819 
Q 2322 1972 1947 1972 
L 1259 1972 
L 1259 0 
L 628 0 
L 628 4666 
L 2053 4666 
Q 2853 4666 3247 4331 
Q 3641 3997 3641 3322 
Q 3641 2881 3436 2590 
Q 3231 2300 2841 2188 
z
M 1259 4147 
L 1259 2491 
L 2053 2491 
Q 2509 2491 2742 2702 
Q 2975 2913 2975 3322 
Q 2975 3731 2742 3939 
Q 2509 4147 2053 4147 
L 1259 4147 
z
" transform="scale(0.015625)"/>
     <path id="DejaVuSans-5a" d="M 359 4666 
L 4025 4666 
L 4025 4184 
L 1075 531 
L 4097 531 
L 4097 0 
L 288 0 
L 288 481 
L 3238 4134 
L 359 4134 
L 359 4666 
z
" transform="scale(0.015625)"/>
     <path id="DejaVuSans-2d" d="M 313 2009 
L 1997 2009 
L 1997 1497 
L 313 1497 
L 313 2009 
z
" transform="scale(0.015625)"/>
     <path id="DejaVuSans-4c" d="M 628 4666 
L 1259 4666 
L 1259 531 
L 3531 531 
L 3531 0 
L 628 0 
L 628 4666 
z
" transform="scale(0.015625)"/>
     <path id="DejaVuSans-20" transform="scale(0.015625)"/>
     <path id="DejaVuSans-77" d="M 269 3500 
L 844 3500 
L 1563 769 
L 2278 3500 
L 2956 3500 
L 3675 769 
L 4391 3500 
L 4966 3500 
L 4050 0 
L 3372 0 
L 2619 2869 
L 1863 0 
L 1184 0 
L 269 3500 
z
" transform="scale(0.015625)"/>
     <path id="DejaVuSans-69" d="M 603 3500 
L 1178 3500 
L 1178 0 
L 603 0 
L 603 3500 
z
M 603 4863 
L 1178 4863 
L 1178 4134 
L 603 4134 
L 603 4863 
z
" transform="scale(0.015625)"/>
     <path id="DejaVuSans-74" d="M 1172 4494 
L 1172 3500 
L 2356 3500 
L 2356 3053 
L 1172 3053 
L 1172 1153 
Q 1172 725 1289 603 
Q 1406 481 1766 481 
L 2356 481 
L 2356 0 
L 1766 0 
Q 1100 0 847 248 
Q 594 497 594 1153 
L 594 3053 
L 172 3053 
L 172 3500 
L 594 3500 
L 594 4494 
L 1172 4494 
z
" transform="scale(0.015625)"/>
     <path id="DejaVuSans-68" d="M 3513 2113 
L 3513 0 
L 2938 0 
L 2938 2094 
Q 2938 2591 2744 2837 
Q 2550 3084 2163 3084 
Q 1697 3084 1428 2787 
Q 1159 2491 1159 1978 
L 1159 0 
L 581 0 
L 581 4863 
L 1159 4863 
L 1159 2956 
Q 1366 3272 1645 3428 
Q 1925 3584 2291 3584 
Q 2894 3584 3203 3211 
Q 3513 2838 3513 2113 
z
" transform="scale(0.015625)"/>
     <path id="DejaVuSans-6f" d="M 1959 3097 
Q 1497 3097 1228 2736 
Q 959 2375 959 1747 
Q 959 1119 1226 758 
Q 1494 397 1959 397 
Q 2419 397 2687 759 
Q 2956 1122 2956 1747 
Q 2956 2369 2687 2733 
Q 2419 3097 1959 3097 
z
M 1959 3584 
Q 2709 3584 3137 3096 
Q 3566 2609 3566 1747 
Q 3566 888 3137 398 
Q 2709 -91 1959 -91 
Q 1206 -91 779 398 
Q 353 888 353 1747 
Q 353 2609 779 3096 
Q 1206 3584 1959 3584 
z
" transform="scale(0.015625)"/>
     <path id="DejaVuSans-75" d="M 544 1381 
L 544 3500 
L 1119 3500 
L 1119 1403 
Q 1119 906 1312 657 
Q 1506 409 1894 409 
Q 2359 409 2629 706 
Q 2900 1003 2900 1516 
L 2900 3500 
L 3475 3500 
L 3475 0 
L 2900 0 
L 2900 538 
Q 2691 219 2414 64 
Q 2138 -91 1772 -91 
Q 1169 -91 856 284 
Q 544 659 544 1381 
z
M 1991 3584 
L 1991 3584 
z
" transform="scale(0.015625)"/>
     <path id="DejaVuSans-73" d="M 2834 3397 
L 2834 2853 
Q 2591 2978 2328 3040 
Q 2066 3103 1784 3103 
Q 1356 3103 1142 2972 
Q 928 2841 928 2578 
Q 928 2378 1081 2264 
Q 1234 2150 1697 2047 
L 1894 2003 
Q 2506 1872 2764 1633 
Q 3022 1394 3022 966 
Q 3022 478 2636 193 
Q 2250 -91 1575 -91 
Q 1294 -91 989 -36 
Q 684 19 347 128 
L 347 722 
Q 666 556 975 473 
Q 1284 391 1588 391 
Q 1994 391 2212 530 
Q 2431 669 2431 922 
Q 2431 1156 2273 1281 
Q 2116 1406 1581 1522 
L 1381 1569 
Q 847 1681 609 1914 
Q 372 2147 372 2553 
Q 372 3047 722 3315 
Q 1072 3584 1716 3584 
Q 2034 3584 2315 3537 
Q 2597 3491 2834 3397 
z
" transform="scale(0.015625)"/>
     <path id="DejaVuSans-65" d="M 3597 1894 
L 3597 1613 
L 953 1613 
Q 991 1019 1311 708 
Q 1631 397 2203 397 
Q 2534 397 2845 478 
Q 3156 559 3463 722 
L 3463 178 
Q 3153 47 2828 -22 
Q 2503 -91 2169 -91 
Q 1331 -91 842 396 
Q 353 884 353 1716 
Q 353 2575 817 3079 
Q 1281 3584 2069 3584 
Q 2775 3584 3186 3129 
Q 3597 2675 3597 1894 
z
M 3022 2063 
Q 3016 2534 2758 2815 
Q 2500 3097 2075 3097 
Q 1594 3097 1305 2825 
Q 1016 2553 972 2059 
L 3022 2063 
z
" transform="scale(0.015625)"/>
    </defs>
    <use xlink:href="#DejaVuSans-4e"/>
    <use xlink:href="#DejaVuSans-52" x="74.804688"/>
    <use xlink:href="#DejaVuSans-5a" x="144.287109"/>
    <use xlink:href="#DejaVuSans-2d" x="211.042969"/>
    <use xlink:href="#DejaVuSans-4c" x="247.126953"/>
    <use xlink:href="#DejaVuSans-20" x="302.839844"/>
    <use xlink:href="#DejaVuSans-77" x="334.626953"/>
    <use xlink:href="#DejaVuSans-69" x="416.414062"/>
    <use xlink:href="#DejaVuSans-74" x="444.197266"/>
    <use xlink:href="#DejaVuSans-68" x="483.40625"/>
    <use xlink:href="#DejaVuSans-6f" x="546.785156"/>
    <use xlink:href="#DejaVuSans-75" x="607.966797"/>
    <use xlink:href="#DejaVuSans-74" x="671.345703"/>
    <use xlink:href="#DejaVuSans-20" x="710.554688"/>
    <use xlink:href="#DejaVuSans-4e" x="742.341797"/>
    <use xlink:href="#DejaVuSans-6f" x="817.146484"/>
    <use xlink:href="#DejaVuSans-69" x="878.328125"/>
    <use xlink:href="#DejaVuSans-73" x="906.111328"/>
    <use xlink:href="#DejaVuSans-65" x="958.210938"/>
   </g>
  </g>
 </g>
 <defs>
  <clipPath id="pc18d15850c">
   <rect x="57.6" y="41.472" width="357.12" height="266.112"/>
  </clipPath>
 </defs>
</svg>
